<?xml version="1.0" standalone="no"?>
<!DOCTYPE svg PUBLIC "-//W3C//DTD SVG 20010904//EN"
 "http://www.w3.org/TR/2001/REC-SVG-20010904/DTD/svg10.dtd">
<svg version="1.0" xmlns="http://www.w3.org/2000/svg"
 width="296.000000pt" height="170.000000pt" viewBox="0 0 296.000000 170.000000"
 preserveAspectRatio="xMidYMid meet">

<g transform="translate(0.000000,170.000000) scale(0.100000,-0.100000)"
fill="#000000" stroke="none">
<path d="M520 1689 c-131 -14 -267 -84 -359 -184 -102 -112 -151 -240 -151
-392 0 -174 53 -305 172 -424 110 -110 254 -169 413 -169 159 0 303 59 413
169 161 161 217 393 145 602 -94 273 -344 430 -633 398z m-231 -194 c16 -8 31
-22 35 -30 3 -9 6 -154 6 -321 l0 -304 317 0 c311 0 317 0 340 -22 30 -28 30
-74 1 -105 l-21 -23 -368 0 c-202 0 -375 3 -384 6 -42 16 -45 47 -45 401 0
361 2 376 50 400 32 16 35 16 69 -2z m702 -12 c29 -29 29 -77 0 -106 -20 -21
-32 -22 -186 -25 l-165 -3 0 -105 0 -104 165 0 c163 0 166 0 190 -25 32 -31
32 -65 0 -99 l-24 -26 -219 0 -219 0 -24 26 c-23 25 -24 31 -27 207 -4 222 -1
242 41 268 30 18 47 19 239 17 198 -3 208 -4 229 -25z"/>
<path d="M1330 1325 l0 -185 65 0 65 0 0 30 c0 28 -2 30 -40 30 l-40 0 0 155
0 155 -25 0 -25 0 0 -185z"/>
<path d="M1520 1425 c0 -22 4 -25 40 -25 38 0 40 -2 40 -30 0 -28 -2 -30 -39
-30 -53 0 -71 -26 -71 -102 0 -81 18 -98 105 -98 l65 0 0 133 c0 165 -6 177
-86 177 -51 0 -54 -1 -54 -25z m80 -180 c0 -41 -2 -45 -25 -45 -23 0 -25 4
-25 45 0 41 2 45 25 45 23 0 25 -4 25 -45z"/>
<path d="M1710 1295 l0 -155 25 0 24 0 3 128 3 127 28 3 27 3 0 -130 0 -131
25 0 25 0 0 143 c0 98 -4 147 -12 155 -7 7 -40 12 -80 12 l-68 0 0 -155z"/>
<path d="M1946 1434 c-13 -12 -16 -40 -16 -139 0 -117 1 -125 22 -139 12 -9
37 -16 55 -16 29 0 33 -3 33 -25 0 -22 -4 -25 -40 -25 -38 0 -40 -2 -40 -30 0
-29 2 -30 43 -30 23 0 53 7 65 16 21 15 22 20 22 210 l0 194 -64 0 c-45 0 -69
-5 -80 -16z m94 -134 l0 -100 -30 0 -30 0 0 93 c0 52 3 97 7 100 3 4 17 7 30
7 23 0 23 -2 23 -100z"/>
<path d="M2150 1312 c0 -122 2 -141 18 -155 24 -21 90 -22 120 -1 21 14 22 22
22 155 l0 139 -25 0 -25 0 0 -125 0 -125 -30 0 -30 0 0 125 0 125 -25 0 -25 0
0 -138z"/>
<path d="M2380 1425 c0 -23 4 -25 45 -25 43 0 45 -1 45 -30 0 -28 -2 -30 -39
-30 -57 0 -71 -19 -71 -96 0 -86 17 -104 100 -104 l60 0 0 143 c0 98 -4 147
-12 155 -7 7 -38 12 -70 12 -55 0 -58 -1 -58 -25z m90 -180 c0 -43 -1 -45 -30
-45 -28 0 -30 2 -30 38 0 45 5 52 37 52 21 0 23 -5 23 -45z"/>
<path d="M2596 1434 c-13 -12 -16 -40 -16 -139 0 -117 1 -125 22 -139 12 -9
37 -16 55 -16 29 0 33 -3 33 -25 0 -22 -4 -25 -40 -25 -38 0 -40 -2 -40 -30 0
-29 2 -30 43 -30 23 0 53 7 65 16 21 15 22 20 22 210 l0 194 -64 0 c-45 0 -69
-5 -80 -16z m94 -134 l0 -100 -30 0 -30 0 0 93 c0 52 3 97 7 100 3 4 17 7 30
7 23 0 23 -2 23 -100z"/>
<path d="M2818 1439 c-16 -9 -18 -27 -18 -138 0 -154 4 -161 94 -161 57 0 57
0 54 28 -3 25 -7 27 -50 30 -47 3 -48 4 -48 38 l0 34 55 0 55 0 0 74 c0 91
-11 106 -78 106 -26 0 -55 -5 -64 -11z m87 -79 c0 -31 -3 -35 -27 -38 -27 -3
-28 -1 -28 38 0 39 1 41 28 38 24 -3 27 -7 27 -38z"/>
<path d="M1348 999 c-16 -9 -18 -28 -18 -167 0 -110 4 -162 12 -170 7 -7 36
-12 65 -12 50 0 53 1 53 25 0 23 -4 25 -40 25 l-41 0 3 128 3 127 38 3 c32 3
37 7 37 28 0 22 -4 24 -47 24 -27 0 -56 -5 -65 -11z"/>
<path d="M1950 842 c0 -117 4 -172 12 -180 7 -7 29 -12 50 -12 34 0 38 3 38
25 0 20 -5 25 -25 25 l-25 0 0 100 0 100 25 0 c20 0 25 5 25 25 0 20 -5 25
-25 25 -21 0 -25 5 -25 30 0 25 -4 30 -25 30 l-25 0 0 -168z"/>
<path d="M1522 938 c-8 -8 -12 -53 -12 -138 0 -85 4 -130 12 -138 7 -7 39 -12
75 -12 61 0 63 1 63 25 0 23 -3 25 -50 25 l-50 0 0 35 0 35 55 0 55 0 0 78 c0
47 -5 83 -12 90 -7 7 -37 12 -68 12 -31 0 -61 -5 -68 -12z m98 -73 c0 -32 -2
-35 -30 -35 -28 0 -30 3 -30 35 0 32 2 35 30 35 28 0 30 -3 30 -35z"/>
<path d="M1730 800 l0 -150 25 0 25 0 0 125 0 125 30 0 30 0 0 -125 0 -125 25
0 25 0 0 131 c0 72 -5 139 -10 150 -9 16 -22 19 -80 19 l-70 0 0 -150z"/>
<path d="M2112 938 c-8 -8 -12 -53 -12 -138 0 -85 4 -130 12 -138 7 -7 39 -12
76 -12 60 0 63 1 60 23 -3 19 -10 22 -50 25 -47 3 -48 4 -48 38 l0 34 55 0 55
0 0 71 c0 99 -7 109 -78 109 -32 0 -63 -5 -70 -12z m98 -73 c0 -32 -2 -35 -30
-35 -28 0 -30 3 -30 35 0 32 2 35 30 35 28 0 30 -3 30 -35z"/>
<path d="M2332 938 c-8 -8 -12 -56 -12 -150 l0 -138 25 0 25 0 0 125 0 125 25
0 c20 0 25 5 25 25 0 22 -4 25 -38 25 -21 0 -43 -5 -50 -12z"/>
<path d="M116 412 c-25 -41 -68 -312 -49 -312 6 0 13 29 16 65 8 81 29 185 38
185 3 0 9 -22 13 -49 9 -66 35 -151 46 -151 14 0 26 28 45 110 10 41 21 79 25
83 7 8 20 -121 20 -205 0 -29 4 -48 11 -48 8 0 10 16 5 53 -3 28 -6 88 -6 133
0 52 -5 87 -14 99 -13 18 -14 17 -30 -14 -10 -18 -24 -65 -32 -104 -9 -39 -17
-73 -19 -75 -6 -6 -25 69 -37 148 -11 76 -21 100 -32 82z"/>
<path d="M2865 404 c5 -11 10 -70 13 -131 2 -62 8 -113 13 -113 10 0 10 193 0
229 -4 14 -13 27 -20 29 -11 4 -12 0 -6 -14z"/>
<path d="M950 406 c0 0 -2 -70 -4 -153 l-4 -153 28 0 c42 0 90 11 90 22 0 5
-22 6 -50 2 -48 -6 -50 -6 -50 18 0 14 3 39 6 56 5 25 12 31 44 36 22 3 42 11
45 17 5 7 -7 8 -39 4 l-47 -7 3 68 3 69 63 3 c89 4 78 23 -13 21 -41 -1 -75
-2 -75 -3z"/>
<path d="M2145 398 c-63 -34 -62 -89 5 -163 48 -53 58 -77 42 -101 -12 -18
-45 -25 -80 -15 -18 6 -34 6 -37 1 -8 -13 57 -29 89 -23 36 7 60 45 51 80 -3
16 -27 49 -52 75 -32 32 -45 55 -45 74 0 37 37 67 71 59 21 -5 23 -4 12 9 -16
19 -28 20 -56 4z"/>
<path d="M438 394 c-9 -13 -12 -303 -4 -311 3 -4 6 9 6 28 0 19 3 44 6 57 l6
22 35 -26 c48 -36 56 -20 9 19 l-38 32 26 24 c14 14 26 30 26 38 0 20 -10 16
-34 -14 l-21 -28 -5 85 c-3 47 -8 80 -12 74z"/>
<path d="M2638 394 c-12 -12 -10 -316 2 -309 6 3 10 29 10 57 l0 50 36 -27
c48 -37 58 -22 10 18 l-38 32 26 24 c14 14 26 30 26 38 0 20 -10 16 -34 -14
l-21 -28 -5 84 c-3 45 -8 79 -12 75z"/>
<path d="M1385 226 c-11 -7 -26 -11 -34 -8 -11 4 -13 1 -8 -12 4 -10 7 -38 7
-62 0 -24 5 -44 10 -44 6 0 10 17 10 38 0 21 7 48 17 61 15 23 17 23 29 6 17
-22 33 -11 18 12 -15 23 -27 26 -49 9z"/>
<path d="M1530 208 c0 -34 -11 -68 -22 -68 -5 0 -16 17 -25 38 -9 20 -18 31
-20 24 -7 -19 17 -71 40 -87 16 -11 19 -22 15 -60 -6 -52 6 -71 16 -23 14 71
19 198 7 198 -6 0 -11 -10 -11 -22z"/>
<path d="M315 207 c-11 -9 -14 -16 -7 -21 6 -3 13 -2 17 4 10 16 52 12 59 -6
11 -28 7 -35 -15 -23 -18 9 -25 7 -42 -10 -20 -19 -20 -22 -5 -37 12 -12 26
-15 52 -10 34 6 36 9 36 45 0 60 -50 90 -95 58z m65 -78 c0 -5 -9 -9 -20 -9
-19 0 -26 11 -14 23 8 8 34 -3 34 -14z"/>
<path d="M561 211 c-19 -12 -20 -74 -2 -95 17 -20 84 -21 101 -1 14 17 0 20
-35 6 -21 -9 -55 3 -55 19 0 6 12 10 28 10 15 0 34 5 42 10 12 7 11 13 -10 34
-25 27 -45 32 -69 17z m43 -17 c26 -10 18 -24 -14 -24 -22 0 -28 4 -24 15 7
16 14 18 38 9z"/>
<path d="M1212 208 c-18 -18 -14 -73 6 -91 20 -19 68 -22 92 -7 23 14 6 22
-24 10 -19 -7 -33 -7 -47 0 -30 16 -22 30 16 30 45 0 58 25 26 52 -27 21 -52
23 -69 6z m58 -23 c11 -13 8 -15 -19 -15 -30 0 -39 9 -24 23 11 11 30 8 43 -8z"/>
<path d="M1745 200 c-17 -19 -19 -19 -31 -2 -16 22 -29 9 -15 -16 6 -12 11
-34 11 -51 0 -17 5 -31 10 -31 6 0 10 9 10 20 0 30 29 82 43 77 7 -2 14 -28
17 -57 3 -29 10 -55 15 -57 12 -4 5 104 -8 125 -12 18 -31 15 -52 -8z"/>
<path d="M1842 208 c-18 -18 -14 -73 6 -91 20 -19 68 -22 92 -7 22 14 6 22
-24 11 -29 -12 -52 -6 -60 15 -4 10 3 14 30 14 42 0 54 22 29 50 -20 22 -55
26 -73 8z m58 -23 c11 -13 8 -15 -19 -15 -30 0 -39 9 -24 23 11 11 30 8 43 -8z"/>
<path d="M2382 208 c-17 -17 -15 -74 4 -92 17 -18 71 -21 94 -6 23 15 3 24
-26 12 -18 -9 -31 -9 -45 -2 -30 16 -23 30 16 30 45 0 58 25 26 52 -27 21 -52
23 -69 6z m58 -23 c11 -13 8 -15 -19 -15 -30 0 -39 9 -24 23 11 11 30 8 43 -8z"/>
<path d="M2523 213 c-7 -2 -13 -12 -13 -21 0 -12 3 -13 12 -4 17 17 55 15 62
-4 9 -24 8 -27 -18 -20 -32 8 -65 -26 -46 -49 13 -15 46 -20 74 -9 21 8 21 77
0 98 -15 16 -46 20 -71 9z m55 -81 c2 -7 -6 -12 -17 -12 -21 0 -27 11 -14 24
9 9 26 2 31 -12z"/>
<path d="M1113 158 c30 -69 51 -73 66 -14 13 54 14 66 2 66 -5 0 -11 -18 -15
-40 -3 -22 -10 -40 -14 -40 -4 0 -15 18 -24 40 -9 22 -21 40 -27 40 -6 0 0
-24 12 -52z"/>
<path d="M2242 202 c-9 -6 -12 -33 -10 -95 3 -89 20 -121 26 -47 2 31 7 40 21
40 26 0 71 38 71 60 0 9 -6 23 -14 29 -19 16 -78 24 -94 13z m78 -28 c11 -13
10 -19 -7 -36 -28 -28 -53 -17 -53 22 0 25 4 30 24 30 13 0 29 -7 36 -16z"/>
<path d="M715 186 c-19 -14 -19 -15 17 -30 21 -9 42 -16 48 -16 5 0 10 -4 10
-10 0 -5 -18 -10 -40 -10 -22 0 -40 5 -40 10 0 6 -4 10 -10 10 -16 0 -11 -27
6 -34 40 -15 114 1 114 25 0 5 -19 19 -42 30 -35 16 -38 19 -15 15 17 -2 26 1
24 8 -6 17 -50 19 -72 2z"/>
<path d="M1582 188 c-6 -6 -12 -27 -12 -45 0 -26 5 -34 24 -39 55 -14 87 15
70 63 -7 21 -17 29 -39 31 -17 2 -36 -3 -43 -10z m66 -40 c3 -25 0 -28 -27
-28 -31 0 -41 13 -33 43 3 13 12 17 31 15 20 -2 27 -9 29 -30z"/>
<path d="M2880 100 c0 -5 5 -10 10 -10 6 0 10 5 10 10 0 6 -4 10 -10 10 -5 0
-10 -4 -10 -10z"/>
</g>
</svg>
